
<?xml version="1.0" standalone="no"?>
<!DOCTYPE svg PUBLIC "-//W3C//DTD SVG 20010904//EN"
 "http://www.w3.org/TR/2001/REC-SVG-20010904/DTD/svg10.dtd">
<svg version="1.0" xmlns="http://www.w3.org/2000/svg"
 width="500.000000pt" height="500.000000pt" viewBox="0 0 500.000000 500.000000"
 preserveAspectRatio="xMidYMid meet">

<g transform="translate(0.000000,500.000000) scale(0.100000,-0.100000)"
fill="#000000" stroke="none">
<path d="M1947 4713 c-9 -2 -26 -21 -36 -42 -17 -32 -17 -40 -6 -68 7 -17 23
-36 34 -43 21 -11 21 -14 21 -535 0 -514 0 -525 -20 -535 -17 -9 -20 -21 -20
-70 0 -59 0 -60 -29 -60 -28 0 -29 2 -33 57 -4 44 -10 60 -26 71 -22 14 -22
18 -22 320 l0 306 30 25 c17 15 33 40 36 58 5 27 1 37 -24 63 -49 49 -115 36
-141 -29 -10 -24 -10 -34 3 -60 9 -17 25 -35 36 -41 19 -10 20 -21 20 -319 0
-305 0 -309 -22 -323 -16 -11 -22 -27 -26 -71 l-4 -57 -54 0 -54 0 0 -60 0
-60 -60 0 c-49 0 -62 -4 -72 -20 -12 -19 -24 -20 -207 -20 l-193 0 -35 30
c-51 45 -109 36 -138 -21 -44 -84 76 -163 140 -93 14 15 25 31 25 35 0 5 85 9
190 9 188 0 189 0 212 -24 18 -20 35 -26 78 -28 52 -3 55 -5 58 -30 3 -28 3
-28 -53 -28 -47 0 -60 -4 -79 -25 l-23 -25 -470 0 -471 0 -16 25 c-24 36 -61
48 -103 34 -39 -12 -53 -34 -53 -82 0 -75 96 -106 148 -47 l26 30 473 0 c386
0 473 -2 480 -14 14 -22 50 -36 97 -36 42 0 46 -2 46 -25 0 -23 -3 -25 -49
-25 -38 0 -56 -6 -79 -25 l-30 -25 -359 0 -359 0 -22 30 c-18 24 -30 30 -61
30 -49 0 -80 -25 -87 -71 -5 -28 -1 -41 19 -64 35 -41 85 -40 130 3 l33 32
356 0 356 0 16 -25 c15 -22 23 -25 77 -25 60 0 60 0 57 -27 -3 -27 -6 -28 -61
-31 -44 -2 -60 -8 -70 -23 -11 -18 -26 -19 -375 -19 l-364 0 -28 30 c-68 73
-178 2 -140 -89 23 -56 114 -65 146 -15 l16 24 367 0 c352 0 367 -1 378 -19
10 -15 26 -21 70 -23 55 -3 58 -4 61 -30 3 -28 3 -28 -57 -28 -51 0 -62 -3
-76 -22 l-15 -23 -471 -1 -471 -1 -29 31 c-24 25 -36 30 -71 30 -52 -2 -78
-30 -78 -83 0 -79 93 -111 147 -51 l26 30 470 0 469 0 30 -25 c23 -19 41 -25
79 -25 46 0 49 -2 49 -25 0 -24 -3 -25 -55 -25 -47 0 -60 -4 -79 -25 -23 -25
-25 -25 -190 -25 l-167 0 -26 30 c-19 23 -33 30 -60 30 -48 0 -70 -14 -83 -55
-10 -30 -9 -40 7 -67 32 -55 103 -56 145 -3 19 25 21 25 188 25 l168 0 16 -25
c15 -22 23 -25 77 -25 60 0 60 0 57 -27 -3 -27 -6 -28 -61 -31 -44 -2 -60 -8
-70 -23 -11 -18 -27 -19 -572 -19 l-561 0 -26 30 c-20 23 -35 30 -63 30 -104
0 -117 -150 -14 -166 30 -5 41 -1 71 25 l36 31 558 0 c548 0 559 0 572 -20 10
-16 23 -20 72 -20 60 0 60 0 60 -30 0 -30 0 -30 -60 -30 -49 0 -62 -4 -72 -20
-12 -19 -24 -20 -377 -20 l-364 0 -23 25 c-64 70 -169 18 -149 -74 14 -66 96
-83 145 -31 l28 30 364 0 c349 0 364 -1 375 -19 10 -15 26 -21 70 -23 l58 -3
3 -57 3 -57 52 -3 52 -3 7 -55 c5 -40 12 -59 27 -69 20 -13 21 -23 21 -167 0
-149 -1 -154 -22 -165 -33 -18 -47 -40 -48 -75 0 -75 94 -113 145 -58 35 38
33 84 -5 121 l-30 28 0 151 c0 142 1 152 21 165 15 10 22 29 27 69 6 50 9 55
32 55 23 0 25 -4 28 -57 2 -45 7 -60 22 -68 19 -10 20 -24 20 -345 0 -284 -2
-335 -14 -335 -21 0 -56 -49 -56 -79 0 -14 11 -39 25 -54 48 -51 128 -29 149
40 8 27 -16 78 -44 93 -19 10 -20 22 -20 335 l0 324 22 16 c18 12 24 28 28 73
5 53 7 57 30 57 22 0 25 -5 28 -40 4 -61 11 -85 26 -85 8 0 17 -7 20 -16 10
-26 7 -1094 -3 -1094 -19 0 -71 -62 -71 -86 0 -13 13 -38 28 -56 38 -41 81
-43 122 -3 39 37 39 73 0 115 l-30 32 0 545 c-1 536 0 546 20 565 15 14 20 31
20 69 0 37 4 51 16 56 31 11 48 -10 49 -62 0 -38 5 -51 23 -63 l22 -14 0 -417
0 -416 -35 -28 c-29 -23 -35 -34 -35 -67 0 -30 6 -43 31 -64 40 -34 74 -33
110 3 39 40 39 82 -1 123 l-30 30 0 418 c0 409 0 420 20 430 16 9 20 21 20 65
0 50 2 55 24 61 38 9 46 -2 46 -61 0 -44 4 -56 20 -65 20 -10 20 -21 20 -522
l0 -512 -35 -32 c-46 -41 -47 -83 -6 -125 36 -36 70 -37 110 -3 43 36 43 88 1
129 l-30 29 0 505 0 505 22 23 c15 16 24 41 28 76 5 47 7 52 30 52 23 0 25 -4
28 -59 3 -48 7 -59 23 -63 18 -5 19 -16 19 -233 0 -220 -1 -229 -20 -235 -27
-9 -53 -61 -46 -91 10 -38 42 -64 80 -64 48 0 65 8 82 42 20 39 10 83 -27 110
l-29 22 0 212 c0 209 0 213 22 229 18 12 24 28 28 73 5 53 7 57 33 60 26 3 27
2 27 -47 0 -58 7 -81 25 -81 7 0 16 -7 19 -16 3 -9 6 -159 6 -335 l0 -319 -24
-10 c-48 -18 -61 -88 -25 -134 16 -20 29 -26 60 -26 84 0 119 87 59 145 l-30
29 0 327 c0 326 0 327 22 341 17 11 23 28 28 69 5 49 7 54 30 54 23 0 25 -4
28 -57 2 -45 7 -60 22 -68 19 -10 20 -24 20 -399 l0 -388 -25 -11 c-51 -24
-58 -90 -15 -134 27 -26 36 -30 68 -24 74 12 98 99 42 149 l-30 27 0 380 0
379 24 23 c19 17 26 35 28 73 l3 50 55 5 55 5 3 58 3 57 54 0 c44 0 57 4 67
20 12 19 24 20 315 20 l301 0 30 -30 c40 -40 92 -41 127 -4 29 31 31 62 10
104 -25 49 -109 52 -140 4 l-15 -24 -308 0 c-296 0 -308 1 -320 20 -10 16 -23
20 -67 20 -54 0 -55 0 -55 30 0 30 1 30 55 30 44 0 57 4 67 20 13 20 24 20
560 20 l546 0 30 -30 c38 -37 71 -38 111 -4 24 20 31 34 31 60 0 80 -94 113
-150 54 l-28 -30 -544 0 c-527 0 -544 1 -555 19 -9 15 -26 21 -65 23 -49 3
-53 5 -56 31 -3 26 -2 27 47 27 39 0 56 5 77 25 l27 25 533 0 533 0 29 -31
c78 -83 201 15 131 105 -30 39 -91 37 -129 -4 l-28 -30 -537 0 -538 0 -23 25
c-19 20 -33 25 -74 25 -47 0 -50 2 -50 25 0 23 3 25 48 25 39 0 53 5 72 25 23
24 28 25 148 25 l124 0 28 -30 c45 -48 114 -39 145 20 14 26 13 33 -2 64 -11
24 -27 39 -48 46 -37 12 -60 6 -95 -26 -23 -21 -36 -23 -153 -25 -121 -3 -128
-2 -143 19 -12 18 -25 22 -70 22 -53 0 -54 0 -54 30 0 30 1 30 55 30 44 0 57
4 67 20 13 20 24 20 490 20 l476 0 30 -30 c41 -40 83 -40 123 -1 32 33 36 58
14 100 -25 50 -93 55 -137 11 l-30 -30 -476 0 c-466 0 -477 0 -490 20 -10 16
-23 20 -67 20 -54 0 -55 0 -55 30 0 30 1 30 53 30 44 0 57 4 75 25 l22 25 403
0 403 0 22 -29 c27 -37 71 -47 110 -27 33 17 42 34 42 80 0 74 -97 104 -148
46 l-26 -30 -404 0 -404 0 -30 25 c-22 18 -41 25 -74 25 -40 0 -44 2 -44 25 0
23 3 25 49 25 39 0 54 5 72 25 l24 25 478 0 c262 0 477 -4 477 -8 0 -24 43
-52 81 -52 72 0 111 68 72 126 -34 52 -113 51 -147 -2 l-16 -24 -472 0 -471 0
-23 25 c-19 20 -32 25 -74 25 -50 0 -51 1 -48 28 3 25 7 27 53 30 38 2 56 9
73 28 l23 24 264 0 c250 0 265 -1 275 -19 19 -37 41 -51 79 -51 51 0 81 32 81
87 0 48 -22 71 -73 80 -31 5 -40 1 -67 -26 l-32 -31 -271 0 c-261 0 -273 1
-285 20 -10 16 -23 20 -67 20 l-54 0 -3 58 -3 57 -57 3 -58 3 0 50 c0 40 -5
54 -25 73 l-25 23 0 217 0 217 35 33 c37 35 43 62 23 99 -17 34 -39 46 -80 47
-75 0 -107 -97 -48 -148 l30 -26 0 -223 c0 -210 -1 -223 -20 -233 -15 -8 -20
-23 -22 -68 -3 -54 -4 -57 -30 -60 -27 -3 -28 -2 -28 48 0 42 -5 55 -25 74
l-25 23 0 517 0 517 30 26 c25 20 30 32 30 67 0 50 -21 74 -72 82 -49 8 -90
-27 -90 -78 0 -44 16 -75 42 -83 20 -6 20 -15 20 -530 l0 -523 -25 -16 c-22
-14 -25 -24 -25 -72 0 -54 0 -55 -27 -52 -26 3 -28 7 -31 54 -2 39 -9 57 -27
74 l-25 23 0 416 0 415 35 32 c77 70 18 176 -80 144 -60 -20 -72 -112 -19
-146 l24 -16 0 -433 c0 -425 0 -434 -20 -440 -17 -5 -20 -15 -20 -66 0 -59 0
-59 -30 -59 -29 0 -30 1 -30 50 0 41 -5 55 -25 74 l-25 23 0 513 0 513 35 34
c45 44 47 83 6 124 -45 44 -107 35 -136 -22 -14 -26 -15 -36 -4 -61 7 -16 23
-36 36 -45 l23 -15 0 -528 c0 -519 0 -528 -20 -533 -17 -4 -20 -14 -20 -67 l0
-61 -32 3 c-33 3 -33 4 -36 60 -2 45 -7 60 -22 68 -19 10 -20 23 -20 237 l0
227 32 26 c64 54 27 150 -57 150 -25 0 -40 -8 -59 -31 -36 -42 -33 -75 9 -115
l35 -33 0 -225 c0 -215 -1 -226 -20 -236 -13 -7 -20 -21 -20 -39 0 -16 -3 -43
-6 -60 -6 -27 -11 -32 -33 -29 -24 3 -26 7 -29 53 -2 34 -10 57 -25 73 -20 22
-21 30 -19 243 l2 221 30 28 c59 56 26 150 -54 150 -26 0 -40 -7 -60 -31 -14
-17 -26 -39 -26 -49 0 -24 21 -70 31 -70 4 0 15 -7 23 -16 14 -13 16 -49 16
-239 l0 -223 -25 -16 c-22 -14 -25 -24 -25 -71 0 -54 0 -55 -30 -55 -30 0 -30
1 -30 54 0 46 -4 58 -25 74 l-25 20 0 513 0 513 35 32 c47 43 49 91 4 128 -29
25 -52 29 -92 19z m67 -49 c32 -32 10 -79 -35 -72 -12 2 -28 12 -35 23 -12 18
-11 24 2 43 18 26 46 28 68 6z m578 -1 c32 -29 16 -73 -27 -73 -27 0 -45 18
-45 45 0 43 39 58 72 28z m386 5 c7 -7 12 -22 12 -34 0 -51 -72 -61 -78 -11
-6 47 36 75 66 45z m-197 -188 c21 -12 25 -50 7 -68 -18 -18 -56 -14 -68 7
-14 27 -13 37 6 55 18 19 28 20 55 6z m-959 -247 c22 -20 23 -31 1 -55 -23
-25 -50 -23 -69 7 -16 24 -16 27 1 45 22 24 43 25 67 3z m386 -155 c19 -19 14
-56 -8 -68 -43 -23 -83 17 -60 60 12 22 49 27 68 8z m196 -7 c23 -26 13 -59
-21 -67 -37 -10 -67 26 -51 62 14 29 48 32 72 5z m770 -7 c20 -20 20 -33 -1
-56 -29 -32 -73 -16 -73 27 0 42 44 59 74 29z m-1364 -654 c0 -43 -3 -50 -20
-50 -17 0 -20 7 -20 43 0 46 5 57 27 57 9 0 13 -15 13 -50z m195 0 c0 -39 -3
-45 -22 -48 -21 -3 -23 1 -23 41 0 48 6 59 30 55 11 -2 15 -16 15 -48z m193
-3 c3 -45 2 -47 -22 -47 -24 0 -26 4 -26 43 0 48 6 59 30 55 10 -2 16 -17 18
-51z m192 2 c0 -47 -2 -50 -22 -47 -18 2 -24 11 -26 36 -4 45 3 62 28 62 17 0
20 -6 20 -51z m195 42 c3 -6 3 -28 -1 -50 -5 -31 -11 -41 -25 -41 -16 0 -19 8
-19 43 0 24 3 47 7 50 9 10 31 8 38 -2z m190 -41 c0 -39 -3 -45 -22 -48 -21
-3 -23 1 -23 41 0 48 6 59 30 55 11 -2 15 -16 15 -48z m193 -3 c3 -46 2 -48
-20 -45 -18 2 -24 10 -26 36 -4 45 4 64 25 60 14 -2 19 -15 21 -51z m200 24
c6 -39 -7 -71 -28 -71 -17 0 -20 7 -20 43 0 24 3 47 7 51 14 13 38 0 41 -23z
m117 -931 l0 -815 -817 -3 -818 -2 0 820 0 820 818 -2 817 -3 0 -815z m-2270
700 c15 -17 16 -24 7 -45 -14 -29 -47 -33 -74 -8 -22 20 -23 31 -1 55 21 24
45 23 68 -2z m3113 8 c31 -31 3 -82 -40 -76 -18 2 -24 10 -26 37 -5 46 36 69
66 39z m-2523 -33 c0 -16 -8 -21 -44 -23 -48 -4 -65 6 -55 32 5 13 16 16 53
14 38 -3 46 -6 46 -23z m1815 0 c0 -23 -4 -25 -45 -25 -41 0 -45 2 -45 25 0
23 4 25 45 25 41 0 45 -2 45 -25z m-2960 -175 c17 -33 -4 -62 -43 -58 -25 2
-33 8 -35 26 -6 37 5 52 37 52 20 0 34 -7 41 -20z m4094 -2 c16 -26 -4 -52
-42 -56 -26 -3 -32 1 -38 22 -10 41 2 58 37 54 18 -2 37 -11 43 -20z m-2948
-3 c9 -24 -15 -45 -51 -45 -37 0 -58 19 -49 44 8 22 92 23 100 1z m1812 -12
c-3 -25 -7 -28 -43 -28 -36 0 -40 3 -43 28 -3 26 -2 27 43 27 45 0 46 -1 43
-27z m-2738 -168 c15 -19 6 -61 -16 -69 -27 -10 -53 3 -60 30 -8 30 11 54 41
54 12 0 28 -7 35 -15z m3738 -20 c3 -19 -2 -33 -14 -42 -26 -19 -42 -16 -59
11 -24 36 -5 68 38 64 27 -3 33 -8 35 -33z m-2814 2 c14 -22 -6 -37 -50 -37
-40 0 -62 23 -44 46 18 20 79 15 94 -9z m1811 -7 c0 -22 -5 -25 -38 -28 -39
-3 -55 13 -43 44 4 11 17 14 43 12 33 -3 38 -6 38 -28z m-2737 -162 c7 -7 12
-21 12 -33 0 -47 -62 -63 -81 -21 -22 47 33 90 69 54z m3866 -4 c9 -8 16 -22
16 -29 0 -7 -7 -21 -16 -29 -30 -30 -74 -13 -74 29 0 42 44 59 74 29z m-2939
-29 c0 -16 -8 -21 -38 -23 -42 -4 -69 12 -60 34 4 11 18 14 52 12 38 -3 46 -6
46 -23z m1815 0 c0 -23 -4 -25 -45 -25 -41 0 -45 2 -45 25 0 23 4 25 45 25 41
0 45 -2 45 -25z m-2970 -155 c13 0 20 -42 9 -62 -8 -14 -19 -18 -42 -16 -27 3
-33 8 -35 33 -4 31 22 60 46 50 8 -3 17 -5 22 -5z m3394 -6 c30 -30 13 -74
-29 -74 -43 0 -58 39 -28 72 20 22 37 23 57 2z m-2244 -14 c12 -7 13 -13 4
-27 -9 -13 -22 -17 -50 -15 -47 4 -62 16 -44 37 14 17 67 20 90 5z m1820 -15
c0 -23 -4 -25 -45 -25 -37 0 -45 3 -45 18 0 27 9 32 52 32 34 0 38 -3 38 -25z
m-2355 -195 c0 -32 -3 -35 -32 -38 -24 -2 -34 2 -43 17 -17 34 4 63 43 59 29
-3 32 -6 32 -38z m3620 20 c12 -37 -3 -60 -40 -60 -29 0 -36 4 -41 25 -8 33
11 55 47 55 19 0 30 -6 34 -20z m-3081 -13 c14 -22 -6 -37 -50 -37 -40 0 -62
23 -44 46 18 20 79 15 94 -9z m1814 6 c15 -30 3 -43 -39 -43 -41 0 -57 16 -45
45 8 22 73 20 84 -2z m-3128 -178 c19 -23 4 -64 -27 -71 -41 -11 -71 44 -41
74 17 17 53 15 68 -3z m4390 0 c15 -19 6 -61 -16 -69 -27 -10 -53 3 -60 30 -8
30 11 54 41 54 12 0 28 -7 35 -15z m-3075 -30 c0 -16 -8 -21 -38 -23 -42 -4
-69 12 -60 34 4 11 18 14 52 12 38 -3 46 -6 46 -23z m1818 13 c9 -27 -6 -38
-49 -38 -40 0 -44 2 -44 25 0 23 4 25 44 25 27 0 46 -5 49 -12z m-2752 -168
c21 -12 25 -50 7 -68 -36 -36 -93 11 -69 57 13 23 32 27 62 11z m3531 -16 c14
-31 1 -57 -31 -62 -28 -4 -51 14 -51 42 0 50 62 65 82 20z m-2597 -19 c0 -16
-8 -21 -44 -23 -28 -2 -47 1 -52 10 -14 22 12 39 55 36 33 -2 41 -7 41 -23z
m1815 0 c0 -23 -4 -25 -45 -25 -41 0 -45 2 -45 25 0 23 4 25 45 25 41 0 45 -2
45 -25z m-1220 -241 c0 -40 -2 -44 -25 -44 -23 0 -25 4 -25 44 0 27 5 46 13
49 26 9 37 -6 37 -49z m190 -1 c0 -40 -2 -44 -22 -41 -19 2 -24 10 -26 42 -3
40 10 59 35 49 8 -3 13 -22 13 -50z m390 1 c0 -40 -2 -44 -25 -44 -23 0 -25 4
-25 44 0 27 5 46 13 49 26 9 37 -6 37 -49z m-970 1 c0 -38 -3 -45 -20 -45 -17
0 -20 7 -20 45 0 38 3 45 20 45 17 0 20 -7 20 -45z m198 3 c-2 -36 -7 -44 -25
-46 -21 -3 -23 1 -23 42 0 43 2 46 26 46 23 0 25 -3 22 -42z m577 -3 c0 -34
-3 -40 -22 -43 -21 -3 -23 1 -23 43 0 42 2 46 23 43 19 -3 22 -9 22 -43z m385
-1 c0 -41 -2 -45 -22 -42 -19 2 -24 10 -26 46 -3 39 -1 42 22 42 24 0 26 -3
26 -46z m195 1 c0 -34 -3 -40 -22 -43 -21 -3 -23 1 -23 43 0 42 2 46 23 43 19
-3 22 -9 22 -43z m-1351 -451 c30 -30 13 -74 -29 -74 -60 0 -59 88 2 90 6 0
19 -7 27 -16z m950 -120 c49 -19 37 -84 -14 -84 -40 0 -58 32 -35 66 16 25 23
28 49 18z m-753 -235 c18 -18 19 -23 6 -42 -26 -40 -87 -30 -87 14 0 17 34 49
52 49 5 0 17 -9 29 -21z m961 4 c21 -19 23 -44 6 -61 -32 -32 -100 7 -79 46
18 34 46 40 73 15z m196 -115 c32 -32 -4 -87 -48 -73 -25 8 -37 50 -20 70 15
18 51 20 68 3z m-776 -65 c10 -9 18 -23 18 -31 0 -19 -29 -52 -46 -52 -19 0
-44 29 -44 50 0 20 25 50 42 50 6 0 20 -7 30 -17z m206 -222 c7 -45 -35 -66
-70 -34 -23 21 -23 38 3 64 18 18 23 19 42 6 12 -8 23 -24 25 -36z m-394 -40
c33 -36 -4 -82 -53 -66 -44 14 -27 85 19 85 9 0 25 -9 34 -19z"/>
<path d="M1816 3138 c-14 -20 -16 -97 -16 -641 l0 -618 25 -24 24 -25 616 0
616 0 24 25 25 24 0 618 c0 544 -2 621 -16 641 l-15 22 -634 0 -634 0 -15 -22z
m1272 -632 c1 -441 -1 -613 -9 -622 -16 -19 -1208 -21 -1227 -2 -9 9 -12 160
-12 618 0 334 3 610 7 613 3 4 284 6 622 5 l616 -3 3 -609z"/>
<path d="M1950 2760 l0 -60 128 0 c149 0 195 -14 200 -64 10 -83 -16 -96 -193
-96 l-135 0 0 -205 0 -205 65 0 65 0 0 140 0 140 38 0 38 0 64 -140 64 -140
68 0 c37 0 68 4 68 9 0 5 -29 71 -64 147 -57 124 -63 140 -48 149 9 6 33 26
53 45 77 74 75 214 -3 287 -44 42 -99 53 -259 53 l-149 0 0 -60z"/>
<path d="M2713 2809 c-107 -21 -195 -85 -234 -172 -21 -45 -24 -68 -24 -162 0
-94 3 -117 24 -162 58 -129 192 -188 406 -181 l90 3 3 213 2 212 -135 0 -135
0 0 -65 0 -65 65 0 65 0 0 -85 0 -85 -48 0 c-73 0 -150 43 -182 100 -21 37
-25 58 -24 120 0 80 14 118 56 157 43 40 96 55 220 61 l118 5 0 58 0 59 -112
-1 c-62 -1 -132 -5 -155 -10z"/>
</g>
</svg>